<?xml version="1.0" encoding="utf-8"?>
<!-- Generator: Adobe Illustrator 23.0.0, SVG Export Plug-In . SVG Version: 6.00 Build 0)  -->
<svg version="1.1" id="Capa_1" xmlns="http://www.w3.org/2000/svg" xmlns:xlink="http://www.w3.org/1999/xlink" x="0px" y="0px"
	 viewBox="0 0 1460 303.9" enable-background="new 0 0 1460 303.9" xml:space="preserve">
<rect x="554" fill="#DD1D54" width="906" height="303.9"/>
<path fill="#1E120D" d="M735.3,238.3c-19.9,15.6-38.3,20.6-62.6,20.6c-41.9,0-74.5-28.5-74.5-71.2c0-29.1,24.8-49.4,48.8-61.6
	c-10.1-11-17.1-24.5-17.1-39.9c0-35,32.4-56.7,65-56.7c40.8,0,70.2,17.8,70.2,56.7c0,24.9-19.3,45.4-40.1,56.4l16.8,20.9
	c4-5.2,7.1-11,8-16.6h50.6c-3.1,18.7-11.7,38.3-25.8,53l44.8,53.7h-71.8L735.3,238.3z M677.7,166.2c-8.9,4.6-21.1,12.6-21.1,23.6
	c0,12,10.4,20.6,20.9,20.6c9.8,0,18.4-6.5,25.7-13.2L677.7,166.2z M695.5,107.7c8.6-4,17.5-12.6,17.5-22.7c0-8-6.1-14.7-14.7-14.7
	c-7.7,0-16.3,5.5-16.3,15C682,93,690,101.3,695.5,107.7"/>
<path fill="#1E120D" d="M999.4,218.4c0,8.6,1.9,12,8.2,12c2.2,0,5,0,8.6-0.6V254c-5.2,1.8-16.3,4-22.1,4c-14.1,0-24.2-4.9-27-19.3
	C953.4,252.1,931,258,912.3,258c-28.5,0-54.3-15.3-54.3-46.3c0-39.6,31.6-46,61-49.4c25.1-4.6,47.5-1.8,47.5-22.4
	c0-18.1-18.7-21.5-32.8-21.5c-19.6,0-33.4,8-35,25.2h-34.9c2.4-40.8,37-52.8,72.1-52.8c31,0,63.5,12.6,63.5,46V218.4z M964.5,174.2
	c-10.7,7-27.6,6.7-42.9,9.5c-15,2.5-28.5,8-28.5,26.4c0,15.6,19.9,20.2,32.2,20.2c15.3,0,39.2-8,39.2-30V174.2z"/>
<path fill="#1E120D" d="M1034.1,95.1h32.8v30.7h0.6c4-16.8,24.8-34.9,46.3-34.9c7.9,0,10.1,0.6,13.2,0.9v33.7
	c-4.9-0.6-10.1-1.5-15.1-1.5c-23.9,0-42.9,19.3-42.9,54.3v75.4h-35V95.1z"/>
<path fill="#1E120D" d="M1141.5,95.1h26.4V47.6h35v47.5h31.6v26.1h-31.6v84.6c0,14.4,1.2,21.8,16.8,21.8c4.9,0,9.8,0,14.7-1.2v27
	c-7.6,0.6-15,1.9-22.7,1.9c-36.5,0-43.3-14.1-43.9-40.5v-93.5h-26.4V95.1z"/>
<path fill="#1E120D" d="M1289,202.8c1.9,20.2,17.2,27.6,35.9,27.6c13.2,0,36.2-2.8,35.3-20.9c-0.9-18.4-26.4-20.6-51.8-26.4
	c-25.8-5.5-50.9-14.7-50.9-46.9c0-34.6,37.4-45.4,66.2-45.4c32.6,0,62,13.5,66.3,48.7h-36.5c-3.1-16.6-16.9-21.1-32.2-21.1
	c-10.2,0-28.9,2.4-28.9,16.3c0,17.2,25.8,19.6,51.6,25.4c25.5,5.8,51.2,15,51.2,46.3c0,37.7-38,51.5-70.8,51.5
	c-39.8,0-69.6-17.8-70.2-55.2H1289z"/>
<path fill="#1E120D" d="M0,123.6V93.4h27V80.6c0-14.6,4.6-26.6,13.7-36c9.1-9.3,22.9-14,41.3-14c4,0,8.1,0.2,12.1,0.5
	c4,0.3,8,0.6,11.8,0.8v33.7c-5.3-0.6-10.8-1-16.6-1c-6.1,0-10.6,1.4-13.2,4.3c-2.7,2.9-4,7.7-4,14.5v9.9h31.2v30.2H72.2V258H27
	V123.6H0z"/>
<path fill="#1E120D" d="M124.4,30.7h45.2v37.2h-45.2V30.7z M169.7,258h-45.2V93.4h45.2V258z"/>
<rect x="193.8" y="30.7" fill="#1E120D" width="45.2" height="227.3"/>
<path fill="#1E120D" d="M305.9,93.4v22.3h0.6c5.9-8.5,13.1-15.1,21.5-19.7c8.4-4.7,18-7,28.8-7c10.4,0,19.9,2,28.5,6.1
	c8.6,4,15.1,11.1,19.6,21.3c4.9-7.2,11.5-13.6,19.9-19.1c8.4-5.5,18.3-8.3,29.8-8.3c8.7,0,16.8,1.1,24.2,3.2
	c7.4,2.2,13.8,5.5,19.1,10.2c5.3,4.7,9.4,10.8,12.4,18.3c3,7.5,4.5,16.6,4.5,27.2V258h-45.2v-93.3c0-5.5-0.2-10.7-0.6-15.6
	c-0.4-4.9-1.6-9.1-3.5-12.7c-1.9-3.6-4.8-6.5-8.4-8.6c-3.7-2.1-8.8-3.2-15.1-3.2s-11.5,1.2-15.4,3.7c-3.9,2.4-7,5.6-9.2,9.5
	c-2.2,3.9-3.7,8.4-4.5,13.4c-0.7,5-1.1,10-1.1,15.1V258h-45.2v-92.3c0-4.9-0.1-9.7-0.3-14.5c-0.2-4.8-1.1-9.2-2.7-13.2
	c-1.6-4-4.2-7.3-8-9.7c-3.7-2.4-9.2-3.7-16.4-3.7c-2.1,0-4.9,0.5-8.4,1.4c-3.5,1-6.9,2.7-10.2,5.4c-3.3,2.6-6.1,6.5-8.4,11.5
	c-2.4,5-3.5,11.5-3.5,19.6V258h-45.2V93.4H305.9z"/>
<g>
</g>
<g>
</g>
<g>
</g>
<g>
</g>
<g>
</g>
<g>
</g>
</svg>
