<?xml version="1.0" encoding="utf-8"?>
<!-- Generator: Adobe Illustrator 26.0.1, SVG Export Plug-In . SVG Version: 6.00 Build 0)  -->
<svg version="1.1"
	 id="svg3554" inkscape:version="1.0.2 (1.0.2+r75+1)" xmlns:cc="http://creativecommons.org/ns#" xmlns:dc="http://purl.org/dc/elements/1.1/" xmlns:inkscape="http://www.inkscape.org/namespaces/inkscape" xmlns:rdf="http://www.w3.org/1999/02/22-rdf-syntax-ns#" xmlns:sodipodi="http://sodipodi.sourceforge.net/DTD/sodipodi-0.dtd" xmlns:svg="http://www.w3.org/2000/svg"
	 xmlns="http://www.w3.org/2000/svg" xmlns:xlink="http://www.w3.org/1999/xlink" x="0px" y="0px" width="500px" height="88.3px"
	 viewBox="0 0 500 88.3" style="enable-background:new 0 0 500 88.3;" xml:space="preserve">
<style type="text/css">
	.st0{fill:#542785;}
	.st1{fill:#AECD60;}
	.st2{fill:#DBE283;}
	.st3{fill:#A2C62C;}
	.st4{fill:#86BC25;}
</style>
<g>
	<g>
		<g>
			<g>
				<polygon class="st0" points="156.9,73.5 156.9,32.7 141.1,73.5 134.9,73.5 119.1,32.7 119.1,73.5 104.6,73.5 104.6,14.8 
					125.3,14.8 138,48 150.8,14.8 171.2,14.8 171.2,73.5 				"/>
			</g>
			<g>
				<polygon class="st0" points="183.4,73.5 183.4,14.8 226,14.8 226,27.3 198,27.3 198,37.5 225.5,37.5 225.5,50 198,50 198,61 
					226,61 226,73.5 				"/>
			</g>
			<g>
				<path class="st0" d="M265.3,74.5c-4.3,0-8.4-0.8-12.2-2c-3.8-1.3-7.1-3.3-9.9-6.1c-2.8-2.6-5.1-5.9-6.9-9.4
					c-1.8-3.6-2.6-7.9-2.6-12.5s0.8-8.9,2.6-12.5c1.8-3.8,3.8-6.9,6.9-9.4c2.8-2.6,6.1-4.6,9.9-6.1c3.8-1.3,7.9-2,12.2-2
					c3.3,0,6.4,0.5,8.9,1.3c2.6,0.8,5.1,1.8,6.9,3.1c2,1.3,3.8,2.8,5.4,4.6c1.3,1.5,2.6,3.3,3.6,4.8l-12,6.4c-1-1.8-2.8-3.6-4.8-5.1
					c-2.3-1.5-4.8-2.3-7.9-2.3c-2.6,0-4.8,0.5-6.9,1.3c-2,1-3.8,2.3-5.4,3.8c-1.5,1.5-2.8,3.6-3.6,5.6c-0.8,2-1.3,4.3-1.3,6.9
					s0.5,4.8,1.3,6.9c0.8,2,2,4.1,3.6,5.6c1.5,1.5,3.3,2.8,5.4,3.8c2,1,4.3,1.3,6.9,1.3c2.3,0,4.3-0.5,6.4-1c2-0.8,3.6-1.5,4.8-2.6
					l0.3-0.3v-5.4h-13.3V40.3h27.8v23c-3.1,3.6-6.9,6.1-11,8.2C275.8,73.5,270.7,74.5,265.3,74.5z"/>
			</g>
			<g>
				<path class="st0" d="M340.6,73.5l-3.1-8.7h-24l-3.1,8.7h-16.3l21.9-58.4h18.6l22.2,58.4H340.6z M317.3,52.6h16.3l-8.2-24.2
					L317.3,52.6z"/>
			</g>
			<g>
				<path class="st0" d="M362.8,73.5V14.8h29.3c3.3,0,6.1,0.5,8.7,1.5s4.6,2.3,6.4,4.1c1.8,1.8,3.1,3.8,3.8,6.1s1.3,4.8,1.3,7.4
					c0,2.6-0.5,5.1-1.3,7.4s-2,4.3-3.8,6.1c-1.8,1.8-3.8,3.1-6.4,4.1c-2.6,1-5.4,1.5-8.7,1.5h-14.8V73h-14.5V73.5z M377,41.1h12.8
					c2.3,0,4.1-0.5,5.4-1.8c1.5-1.3,2.3-2.8,2.3-5.1s-0.8-3.8-2.3-5.1c-1.5-1.3-3.3-1.8-5.4-1.8H377V41.1z"/>
			</g>
			<g>
				<rect x="419.4" y="14.8" class="st0" width="14.3" height="58.4"/>
			</g>
			<g>
				<polygon class="st0" points="482.9,73.5 469.9,53.1 456.6,73.5 439.5,73.5 459.9,43.4 441.1,14.8 457.9,14.8 469.9,33.9 
					481.6,14.8 498.7,14.8 479.6,43.4 500,73.5 				"/>
			</g>
		</g>
	</g>
	<g>
		<polygon class="st1" points="88.3,44.1 44.1,0 44.1,44.1 		"/>
		<polygon class="st2" points="44.1,0 0,44.1 44.1,44.1 		"/>
		<polygon class="st3" points="0,44.1 44.1,88.3 44.1,44.1 		"/>
		<polygon class="st4" points="44.1,44.1 44.1,88.3 88.3,44.1 		"/>
	</g>
</g>
</svg>
